<svg id="artwork" xmlns="http://www.w3.org/2000/svg" viewBox="0 0 135 40"><defs><style>.cls-1{fill:#a6a6a6;}.cls-2,.cls-3,.cls-4{fill:#fff;}.cls-2{stroke:#fff;stroke-miterlimit:10;stroke-width:0.2px;}.cls-4{fill-rule:evenodd;}</style></defs><rect width="135" height="40" rx="5"/><path class="cls-1" d="M130,.8A4.2,4.2,0,0,1,134.2,5V35a4.2,4.2,0,0,1-4.2,4.2H5A4.2,4.2,0,0,1,.8,35h0V5A4.2,4.2,0,0,1,5,.8H130m0-.8H5A5,5,0,0,0,0,5V35a5,5,0,0,0,5,5H130a5,5,0,0,0,5-5V5A5,5,0,0,0,130,0Z"/><path class="cls-2" d="M47.42,10.24a2.723,2.723,0,0,1-.75,2,2.9,2.9,0,0,1-2.2.88,3,3,0,0,1-2.21-.9A3.135,3.135,0,0,1,45.7,7.11a2.531,2.531,0,0,1,.94.67l-.53.53a2,2,0,0,0-1.64-.72,2.4,2.4,0,1,0,1.68,4.13,1.92,1.92,0,0,0,.5-1.22H44.47V9.78h2.91A3.724,3.724,0,0,1,47.42,10.24Z"/><path class="cls-2" d="M52,7.74H49.3v1.9h2.46v.72H49.3v1.9H52V13H48.52V7H52Z"/><path class="cls-2" d="M55.28,13h-.77V7.74H52.83V7H57v.74H55.28Z"/><path class="cls-2" d="M59.94,13V7h.77v6Z"/><path class="cls-2" d="M64.13,13h-.77V7.74H61.68V7H65.8v.74H64.13Z"/><path class="cls-2" d="M73.61,12.22a3.11,3.11,0,0,1-4.4,0l0,0a3.241,3.241,0,0,1,0-4.44,2.928,2.928,0,0,1,2.2-.91,3,3,0,0,1,2.2.91A3.072,3.072,0,0,1,74.49,10,3,3,0,0,1,73.61,12.22Zm-3.83-.5a2.29,2.29,0,0,0,3.238.022l.022-.022a2.539,2.539,0,0,0,0-3.44A2.29,2.29,0,0,0,69.8,8.258l-.022.022A2.539,2.539,0,0,0,69.78,11.72Z"/><path class="cls-2" d="M75.58,13V7h.93l2.92,4.67h0V7h.77v6h-.8L76.35,8.11h0V13Z"/><path class="cls-3" d="M47.8,23h6.13a2.858,2.858,0,0,1,.09.52v.6a7.342,7.342,0,0,1-.37,2.32,5.38,5.38,0,0,1-1.16,2,5.544,5.544,0,0,1-2,1.41,7.112,7.112,0,0,1-5.24,0,6.378,6.378,0,0,1-2.09-1.39,6.81,6.81,0,0,1,0-9.57,6.378,6.378,0,0,1,2.09-1.39,7.047,7.047,0,0,1,5.29,0,6,6,0,0,1,2,1.49L51,20.55a4.392,4.392,0,0,0-1.37-1,4.283,4.283,0,0,0-1.8-.35,4.227,4.227,0,0,0-1.62.32,4.006,4.006,0,0,0-1.35.88A4.144,4.144,0,0,0,44,21.77a4.588,4.588,0,0,0-.35,1.81A4.636,4.636,0,0,0,44,25.4a4,4,0,0,0,.92,1.38,4.141,4.141,0,0,0,1.36.88,4.619,4.619,0,0,0,3.33,0,3.885,3.885,0,0,0,1.17-.76,2.689,2.689,0,0,0,.61-.81,4.437,4.437,0,0,0,.39-1.1H47.8Z"/><path class="cls-3" d="M57.55,20.05a1.382,1.382,0,0,1-.57-.12,1.35,1.35,0,0,1-.47-.32,1.38,1.38,0,0,1-.31-.47,1.41,1.41,0,0,1-.12-.59A1.45,1.45,0,0,1,56.2,18a1.479,1.479,0,0,1,.31-.47,1.513,1.513,0,0,1,.47-.32,1.382,1.382,0,0,1,.57-.12,1.5,1.5,0,0,1,0,3ZM56.42,30V21.23H58.7V30Z"/><path class="cls-3" d="M62.2,23.23H60.7v-2h1.5V18.55h2.29v2.68h2.1v2h-2.1v3.49a2.694,2.694,0,0,0,.06.58.9.9,0,0,0,.24.45.831.831,0,0,0,.69.3A1.288,1.288,0,0,0,66,28a1.306,1.306,0,0,0,.33-.17l.64,2.06a3.355,3.355,0,0,1-.86.29,4.668,4.668,0,0,1-1,.1,3.007,3.007,0,0,1-1.16-.21,2.44,2.44,0,0,1-.87-.57,3.159,3.159,0,0,1-.82-2.34Z"/><path class="cls-3" d="M69.08,17.19h2.36V22.3H76.7V17.19h2.36V30H76.7V24.58H71.44V30H69.08Z"/><path class="cls-3" d="M87.59,28.83h-.14a3,3,0,0,1-1.08,1.05,3.19,3.19,0,0,1-1.56.38,2.88,2.88,0,0,1-2.42-1,4.279,4.279,0,0,1-.79-2.71v-5.3h2.29v5a2,2,0,0,0,.41,1.41,1.521,1.521,0,0,0,1.19.45,1.568,1.568,0,0,0,.83-.21,1.912,1.912,0,0,0,.62-.55,2.7,2.7,0,0,0,.38-.82,3.632,3.632,0,0,0,.13-1v-4.3h2.29V30H87.59Z"/><path class="cls-3" d="M92.24,17.19h2.29V21l-.14,1.25h.14a2.71,2.71,0,0,1,1-1,3.191,3.191,0,0,1,1.64-.39,3.628,3.628,0,0,1,1.56.35,4.134,4.134,0,0,1,1.32,1,4.894,4.894,0,0,1,.9,1.48,5.146,5.146,0,0,1,.33,1.87,5.242,5.242,0,0,1-.33,1.88A4.719,4.719,0,0,1,100,29a4.134,4.134,0,0,1-1.32,1,3.628,3.628,0,0,1-1.56.35,3.191,3.191,0,0,1-1.64-.39,2.63,2.63,0,0,1-1-.95h-.14v1H92.19ZM96.68,28.1a2.106,2.106,0,0,0,.86-.18,2.171,2.171,0,0,0,.73-.5,2.4,2.4,0,0,0,.51-.78,2.872,2.872,0,0,0,.19-1,2.827,2.827,0,0,0-.19-1,2.449,2.449,0,0,0-.51-.79,2.316,2.316,0,0,0-.73-.5,2.106,2.106,0,0,0-.86-.18,2.191,2.191,0,0,0-1.59.66,2.57,2.57,0,0,0-.51.79,3,3,0,0,0,0,2.1,2.449,2.449,0,0,0,.51.79,2.187,2.187,0,0,0,.72.49A2.37,2.37,0,0,0,96.68,28.1Z"/><path class="cls-4" d="M22.91,7.15a13.18,13.18,0,0,0-4.17,25.68c.66.12.9-.29.9-.63V29.74c-3.66.8-4.44-1.55-4.44-1.55a3.417,3.417,0,0,0-1.46-1.93c-1.19-.82.09-.8.09-.8a2.769,2.769,0,0,1,2,1.36,2.81,2.81,0,0,0,3.818,1.1l.022-.012a2.8,2.8,0,0,1,.83-1.76c-2.92-.33-6-1.46-6-6.51a5.071,5.071,0,0,1,1.36-3.54A4.732,4.732,0,0,1,16,12.61s1.11-.35,3.63,1.35a12.588,12.588,0,0,1,6.6,0c2.51-1.7,3.62-1.35,3.62-1.35A4.763,4.763,0,0,1,30,16.1a5.111,5.111,0,0,1,1.35,3.54c0,5.06-3.08,6.17-6,6.5a3.158,3.158,0,0,1,.89,2.44V32.2c0,.44.23.76.9.63A13.18,13.18,0,0,0,22.97,7.15Z"/><path class="cls-3" d="M14.72,26.07a.17.17,0,0,1-.22,0c-.1,0-.15-.13-.12-.2a.15.15,0,0,1,.212-.008l.008.008C14.7,25.87,14.75,26,14.72,26.07Z"/><path class="cls-3" d="M15.26,26.66A.2.2,0,0,1,15,26.6c-.09-.09-.11-.21,0-.27s.18,0,.27.06a.164.164,0,0,1,0,.27Z"/><path class="cls-3" d="M15.77,27.42c-.08.06-.21,0-.29-.11a.241.241,0,0,1,0-.32c.08-.05.21,0,.3.12s.08.26,0,.31Z"/><path class="cls-3" d="M16.49,28.16a.261.261,0,0,1-.34,0c-.12-.11-.15-.26-.08-.34a.25.25,0,0,1,.34,0C16.53,27.93,16.56,28.08,16.49,28.16Z"/><path class="cls-3" d="M17.47,28.58c0,.1-.18.15-.33.11s-.25-.17-.22-.27a.254.254,0,0,1,.33-.11C17.4,28.36,17.5,28.48,17.47,28.58Z"/><path class="cls-3" d="M18.55,28.66c0,.11-.13.2-.28.2s-.29-.08-.29-.19.12-.2.28-.2S18.55,28.55,18.55,28.66Z"/><path class="cls-3" d="M19.55,28.49c0,.11-.09.21-.25.24s-.29,0-.31-.14.09-.22.24-.24S19.53,28.35,19.55,28.49Z"/></svg>